HIERARCHY
ROOT hip
{
	OFFSET 0.000000 0.000000 0.000000 
	CHANNELS 6 Xposition Yposition Zposition Xrotation Zrotation Yrotation
	JOINT abdomen
	{
		OFFSET 0.000000 3.402643 0.000000 
		CHANNELS 3 Xrotation Zrotation Yrotation
		JOINT chest
		{
			OFFSET 0.000000 8.438565 -0.680529 
			CHANNELS 3 Xrotation Zrotation Yrotation
			JOINT neck
			{
				OFFSET 0.000000 10.207942 -0.272212 
				CHANNELS 3 Xrotation Zrotation Yrotation
				JOINT head
				{
					OFFSET 0.000000 3.130431 0.000000 
					CHANNELS 3 Xrotation Zrotation Yrotation
					End Site
					{
						OFFSET 0.000000 3.130435 0.000000 
					}
				}
			}
			JOINT lCollar
			{
				OFFSET 3.470700 6.669187 -0.816635 
				CHANNELS 3 Yrotation Zrotation Xrotation
				JOINT lShldr
				{
					OFFSET 3.198488 0.000000 0.000000 
					CHANNELS 3 Zrotation Yrotation Xrotation
					JOINT lForeArm
					{
						OFFSET 10.139888 0.000000 0.000000 
						CHANNELS 3 Yrotation Zrotation Xrotation
						JOINT lHand
						{
							OFFSET 8.370511 0.000000 0.000000 
							CHANNELS 3 Zrotation Yrotation Xrotation
							End Site
							{
								OFFSET 4.083176 0.000000 0.000000 
							}
						}
					}
				}
			}
			JOINT rCollar
			{
				OFFSET -3.470700 6.669187 -0.816635 
				CHANNELS 3 Yrotation Zrotation Xrotation
				JOINT rShldr
				{
					OFFSET -3.198488 0.000000 0.000000 
					CHANNELS 3 Zrotation Yrotation Xrotation
					JOINT rForeArm
					{
						OFFSET -10.139888 0.000000 0.000000 
						CHANNELS 3 Yrotation Zrotation Xrotation
						JOINT rHand
						{
							OFFSET -8.370511 0.000000 0.000000 
							CHANNELS 3 Zrotation Yrotation Xrotation
							End Site
							{
								OFFSET -4.083176 0.000000 0.000000 
							}
						}
					}
				}
			}
		}
	}
	JOINT lThigh
	{
		OFFSET 5.308129 -1.633274 1.361059 
		CHANNELS 3 Xrotation Zrotation Yrotation
		JOINT lShin
		{
			OFFSET -2.041588 -20.007561 0.000000 
			CHANNELS 3 Xrotation Zrotation Yrotation
			JOINT lFoot
			{
				OFFSET 0.000000 -19.190928 -1.224953 
				CHANNELS 3 Xrotation Yrotation Zrotation
				End Site
				{
					OFFSET 0.000000 -2.449906 4.627600 
				}
			}
		}
	}
	JOINT rThigh
	{
		OFFSET -5.308129 -1.633274 1.361059 
		CHANNELS 3 Xrotation Zrotation Yrotation
		JOINT rShin
		{
			OFFSET 2.041588 -20.007561 0.000000 
			CHANNELS 3 Xrotation Zrotation Yrotation
			JOINT rFoot
			{
				OFFSET 0.000000 -19.190928 -1.224953 
				CHANNELS 3 Xrotation Yrotation Zrotation
				End Site
				{
					OFFSET 0.000000 -2.449906 4.627600 
				}
			}
		}
	}
}
MOTION
Frames: 13
Frame Time: 0.011111
5.707983 51.545494 6.402833 4.187499 -3.667492 -4.341806 6.694677 5.600385 4.865186 -2.709658 -1.670520 1.194291 -14.460380 -2.418809 -1.050799 17.722618 0.080447 -2.721276 1.452834 -1.250150 0.768655 -40.068905 -21.572443 53.966362 -89.943207 1.033597 29.569767 6.992188 16.005859 -39.850822 -6.408587 0.914528 1.823621 72.610207 49.232487 42.311508 76.880707 -9.147091 19.229815 -7.001954 -15.996095 52.509766 -31.161486 7.529235 -8.862931 22.147789 -5.293347 -1.551868 -16.331305 2.638842 0.361818 17.956432 5.526818 5.732491 12.951077 5.249518 0.754682 -9.365336 5.085149 1.549573 
5.726403 51.437080 7.039100 4.109274 -3.973202 -4.661814 6.672701 5.817333 5.044127 -2.641343 -1.623980 1.241979 -14.745033 -2.571090 -1.060759 18.081905 0.233305 -2.755550 1.452834 -1.250150 0.768655 -40.244755 -21.122992 53.724041 -89.950378 1.024189 29.618538 6.992188 16.005859 -40.348873 -6.408587 0.914528 1.823621 72.274033 48.600227 42.444973 77.147629 -9.082320 19.365685 -7.001954 -15.996095 52.636719 -30.842237 7.714050 -8.436531 23.191626 -5.299019 -1.653461 -14.980826 2.643975 0.221625 18.230780 5.653963 6.160751 13.966226 5.259171 0.824523 -8.815192 5.402398 1.583290 
5.746333 51.387257 7.675669 4.215179 -3.791739 -4.754455 6.434208 5.455754 4.979198 -2.778257 -1.376751 1.239808 -14.678388 -2.771567 -1.101449 18.031448 0.206512 -2.908357 1.452834 -1.250150 0.768655 -40.410782 -20.683315 53.735535 -89.951950 1.024264 29.628466 6.992188 16.005859 -40.817619 -6.408587 0.914528 1.823621 71.860794 47.747986 42.478012 77.334770 -9.040181 19.464844 -7.001954 -15.996095 52.724609 -30.970591 7.235797 -8.586067 24.347620 -5.282405 -1.726482 -13.380427 3.265924 0.189299 18.292826 5.359883 6.390105 14.726252 5.261975 0.902550 -8.082481 5.410989 1.525710 
5.805521 51.429836 8.372333 4.123234 -2.935561 -4.774502 6.151309 4.374173 4.796688 -2.680752 -1.144192 1.221905 -14.728163 -2.836137 -1.072286 18.021976 0.201755 -2.850771 1.452834 -1.250150 0.768655 -40.518158 -20.370665 53.805012 -89.957420 1.014732 29.667486 6.992188 16.005859 -40.866447 -6.408587 0.914528 1.823621 71.676407 47.044849 42.479931 77.336288 -9.042322 19.464487 -7.001954 -15.996095 52.421871 -30.820545 5.946887 -9.163294 25.456720 -5.289071 -1.840391 -12.394648 4.527894 0.354665 18.247936 4.325631 5.953501 15.645970 5.268920 1.008400 -7.365307 5.789131 1.532081 
5.846287 51.449162 9.038796 3.965090 -2.613571 -4.939013 6.063663 3.883481 4.732141 -2.670987 -1.144400 1.221710 -14.933315 -2.799078 -1.022490 18.451111 0.349365 -2.733293 1.452834 -1.250150 0.768655 -40.497997 -20.019135 53.596394 -89.964340 1.005227 29.716421 6.992188 16.005859 -41.628162 -6.408587 0.914528 1.823621 71.777519 46.289654 42.419899 77.293243 -9.049680 19.439779 -7.001954 -15.996095 51.757816 -30.782314 5.351512 -9.995276 26.395319 -5.289209 -1.917374 -12.180871 5.276912 0.470505 18.213551 3.885697 5.889667 17.058197 5.290085 1.115009 -6.871038 6.034589 1.525174 
5.856857 51.398430 9.665701 3.808375 -2.607551 -5.076936 6.127541 3.660347 4.751012 -2.944388 -1.187381 1.226555 -14.748805 -2.907086 -1.032570 18.506058 0.809215 -2.708599 1.452834 -1.250150 0.768655 -40.428642 -19.550478 53.459030 -89.965714 1.005275 29.735943 6.992188 16.005859 -42.507069 -6.408587 0.914528 1.823621 71.856232 45.251305 42.307312 77.230888 -9.063785 19.404491 -7.001954 -15.996095 51.386715 -30.696577 5.224622 -10.260181 27.203499 -5.287778 -1.998867 -11.436172 5.038251 0.334743 17.955399 3.866791 6.050063 19.054665 5.298059 1.283591 -6.585103 6.355194 1.533631 
5.870144 51.359169 10.326731 3.544842 -2.302477 -4.995642 6.196476 3.081141 4.703653 -3.247126 -1.161353 1.232950 -14.389429 -3.132864 -1.092174 18.178907 1.514652 -2.750629 1.452834 -1.250150 0.768655 -40.388538 -18.964592 53.790730 -89.967941 1.005348 29.745693 6.992188 16.005859 -42.419182 -6.408587 0.914528 1.823621 71.941124 44.153694 42.014683 76.953171 -9.130625 19.267773 -7.001954 -15.996095 51.044922 -30.064423 4.794959 -9.917708 27.832079 -5.281593 -2.033335 -9.786546 4.662024 0.091180 17.005445 3.534502 5.906347 21.956486 5.294243 1.544883 -5.624961 6.854145 1.515136 
5.873164 51.367020 10.984137 3.428664 -2.282435 -4.842757 6.095852 2.867067 4.618525 -3.227616 -1.112803 1.213385 -14.330827 -3.177031 -1.154376 17.971552 1.754071 -2.848720 1.452834 -1.250150 0.768655 -40.456810 -18.739891 53.869602 -89.966400 1.005298 29.735935 6.992188 16.005859 -42.702389 -6.408587 0.914528 1.823621 72.083977 43.336540 41.520950 76.559067 -9.217962 19.068287 -7.001954 -15.996095 50.400391 -29.560642 4.677742 -9.382808 28.551229 -5.268123 -2.107594 -8.453031 4.334385 -0.052898 15.816669 3.476140 5.992855 24.875145 5.297407 1.789865 -3.446426 6.861896 1.267348 
5.874372 51.439800 11.607419 3.350332 -2.056194 -4.806421 6.049584 2.413832 4.710309 -3.032319 -1.117352 1.248645 -14.526036 -3.246004 -1.278024 17.938505 1.894800 -3.091173 1.452834 -1.250150 0.768655 -40.418030 -19.023148 53.722672 -89.960541 1.014858 29.686987 6.992188 16.005859 -43.327381 -6.408587 0.914528 1.823621 72.265518 42.624390 40.830719 76.207664 -9.295898 18.903091 -7.001954 -15.996095 49.785156 -28.969936 4.462853 -8.674573 29.217934 -5.264737 -2.143488 -8.139801 3.871737 -0.134542 14.497129 3.114745 6.416683 27.934067 5.268023 2.043631 -0.896488 6.071358 0.883689 
5.894605 51.364307 12.204428 3.076045 -0.918646 -4.733864 6.223140 0.841791 4.695087 -3.247184 -1.054275 1.282536 -14.664572 -3.492311 -1.428806 18.165560 2.512591 -3.372757 1.452834 -1.250150 0.768655 -40.084728 -19.004059 53.894974 -89.966400 1.005298 29.735935 6.992188 16.005859 -43.298084 -6.408587 0.914528 1.823621 72.499496 41.554401 40.197636 75.841141 -9.366926 18.718334 -7.001954 -15.996095 49.257816 -28.148912 3.222751 -7.767540 30.013353 -5.262785 -2.224725 -8.478435 3.112447 -0.214724 13.199224 1.845544 5.579377 30.861038 5.237496 2.272477 1.152156 6.543482 0.654906 
5.921480 51.333805 12.812008 2.803722 0.212353 -4.526259 6.297276 -0.731980 4.338360 -3.462086 -0.834426 1.228602 -14.440867 -3.622056 -1.498446 17.986763 3.019309 -3.462445 1.452834 -1.250150 0.768655 -39.927185 -18.506214 53.825016 -89.974625 1.005539 29.804394 6.992188 16.005859 -43.376213 -6.408587 0.914528 1.823621 72.776207 40.471176 39.769867 75.351509 -9.462920 18.478249 -7.001954 -15.996095 48.632809 -27.333595 1.894532 -7.014899 30.780865 -5.244037 -2.289747 -8.652100 2.035207 -0.365875 11.779349 0.527664 4.783529 33.775459 5.165050 2.546239 3.983904 5.972250 0.243279 
5.948054 51.305119 13.423210 2.629432 0.813864 -4.303037 6.206717 -1.607036 3.902810 -3.178992 -0.624773 1.118820 -14.110841 -3.776700 -1.488503 17.116812 3.288523 -3.444652 1.452834 -1.250150 0.768655 -40.171555 -18.056681 53.231926 -89.975479 1.005561 29.804392 6.992188 16.005859 -43.551991 -6.408587 0.914528 1.823621 73.005669 39.765015 39.433167 74.776314 -9.567183 18.202417 -7.001954 -15.996095 47.998047 -26.634165 1.103943 -6.329070 31.475445 -5.242921 -2.338146 -8.715033 0.735355 -0.542277 10.318481 -0.253486 4.344384 36.579937 5.115464 2.772035 7.001307 4.773736 -0.130411 
5.971306 51.278847 14.031997 2.639598 1.065086 -4.222890 5.980249 -1.950702 3.713523 -2.827470 -0.621302 1.076047 -14.046818 -4.059121 -1.461702 16.520140 3.716447 -3.396197 1.452834 -1.250150 0.768655 -40.367329 -17.900169 52.726192 -89.974625 1.005539 29.804394 6.992188 16.005859 -43.268787 -6.408587 0.914528 1.823621 73.174294 39.053997 39.022972 74.238441 -9.652004 17.930056 -7.001954 -15.996095 47.519531 -25.980564 0.810921 -5.541597 31.802658 -5.243606 -2.370840 -9.004297 -0.370997 -0.712468 8.521352 -0.643884 4.277387 39.686161 5.052670 3.014479 9.411596 4.238466 -0.470509 
